<svg xmlns="http://www.w3.org/2000/svg" xmlns:xlink="http://www.w3.org/1999/xlink" version="1.1" viewBox="0 0 100 100"><defs><linearGradient id="g" x1="0%" x2="100%" y1="0%" y2="0%"><stop offset="0%" style="stop-color:#fa5252"/><stop offset="5%" style="stop-color:#fd7e14"/><stop offset="15%" style="stop-color:#fab005"/><stop offset="25%" style="stop-color:#40c057"/><stop offset="35%" style="stop-color:#228be6"/><stop offset="45%" style="stop-color:#7950f2"/><stop offset="60%" style="stop-color:#228be6"/><stop offset="70%" style="stop-color:#40c057"/><stop offset="80%" style="stop-color:#fab005"/><stop offset="90%" style="stop-color:#fd7e14"/><stop offset="100%" style="stop-color:#fa5252"/></linearGradient><pattern id="p" width="600" height="500" x="0" y="-70" patternUnits="userSpaceOnUse"><g transform="rotate(45)"><rect width="300" height="500" x="0" y="0" fill="url(#g)"><animate attributeName="x" attributeType="XML" dur="10s" from="0" repeatCount="indefinite" to="300"/></rect><rect width="300" height="500" x="-150" y="0" fill="url(#g)"><animate attributeName="x" attributeType="XML" dur="10s" from="-300" repeatCount="indefinite" to="0"/></rect></g></pattern></defs><g fill="none" stroke="url(#p)" stroke-linejoin="round" stroke-width="1.8"><path d="M72.09 13.86 L53.18 24.8 l18.93 10.92 18.91 -10.94z"/><path d="M49.87 1.05 L30.95 11.99 49.88 22.9 68.8 11.97z"/><path d="M27.67 13.89 L8.75 24.82 l18.93 10.92 18.91 -10.93z"/><path d="M49.89 26.7 L30.97 37.64 49.9 48.55 l18.92 -10.93z"/><path d="M7.11 27.67 l.01 21.86 18.93 10.91 -.01 -21.85z"/><path d="M29.33 40.49 l.01 21.85 18.93 10.92 -.01 -21.85z"/><path d="M7.12 53.32 l.01 21.85 18.93 10.91 -.01 -21.85z"/><path d="M29.34 66.14 l.01 21.85 L48.28 98.9 l-.01 -21.85z"/><path d="M51.57 98.9 l18.92 -10.93 -.01 -21.85 -18.92 10.93z"/><path d="M73.78 86.06 L92.7 75.13 l-.02 -21.85 -18.91 10.93z"/><path d="M73.76 60.41 l18.92 -10.93 -.01 -21.85 -18.92 10.93z"/><path d="M51.55 51.4 l.01 21.85 18.91 -10.93 -.01 -21.85z"/><animateTransform attributeName="transform" attributeType="XML" dur="12s" from="0 50 50" repeatCount="indefinite" to="360 50 50" type="rotate"/></g><image width="60" height="60" x="50%" y="50%" transform="rotate(30) translate(-12,-62)" xlink:href="https://static.wikia.nocookie.net/minecraft_gamepedia/images/c/ce/Squid.gif"/></svg>